<?xml version="1.0" standalone="no"?><!DOCTYPE svg PUBLIC "-//W3C//DTD SVG 1.1//EN"
        "http://www.w3.org/Graphics/SVG/1.1/DTD/svg11.dtd">
<svg class="icon" height="512" viewBox="0 0 1024 1024" version="1.1" xmlns="http://www.w3.org/2000/svg">
    <path d="M623.238857 786.285714c6.857143 9.904 11.046857 9.142857 16.379429 6.857143s279.620571-94.857143 288-97.904 5.714286-5.714286 3.049143-9.906286S836.571429 556.953143 832 549.714286s-6.857143-5.714286-14.096-3.428572l-290.761143 75.657143s89.238857 154.438857 96.096 164.342857zM950.857143 659.824v-145.366857c-32.713143 8.717714-74.086857 19.734857-90.420572 24.08 24.64 32.969143 63.163429 84.564571 90.420572 121.286857zM860.155429 359.501714c-4.482286 1.017143-103.705143 18.948571-109.817143 19.762286s-4.075429 4.278857-1.629715 7.741714l87.316572 119.803429s106.761143-26.486857 113.282286-27.913143c0.528-0.116571 1.044571-0.24 1.549714-0.365714v-15.862857c-19.405714-24.608-72.276571-91.604571-76.845714-97.865143-5.499429-7.540571-9.373714-6.317714-13.856-5.300572z"
          fill=""/>
    <path d="M235.849143 171.316571c21.485714-0.976 23.446857 3.913143 32.886857 17.910858L505.892571 585.714286l298.194286-71.435429c-16.521143-23.419429-91.526857-129.757714-98.774857-139.904-8.148571-11.410286 0.203429-16.708571 13.446857-18.948571s127.337143-21.392 137.117714-22.818286 17.524571-4.889143 33.414858 14.262857c8.130286 9.798857 35.698286 44.125714 61.565714 76.301714V237.714286c0-45.332571-16.096-84.096-48.285714-116.285715S831.618286 73.142857 786.285714 73.142857H237.714286c-45.332571 0-84.096 16.096-116.285715 48.285714-18.464 18.464-31.604571 39.099429-39.478857 61.888 53.753143-4.416 138.861714-11.316571 153.899429-12z"
          fill=""/>
    <path d="M650.132571 839.648c-25.145143 7.618286-36.420571 11.398857-52.8-11.458286-12.267429-17.12-78.605714-136.605714-111.133714-195.508571-61.558857 16.123429-174.219429 45.526857-206.706286 53.332571-31.709714 7.618286-45.250286-11.392-50.459428-23.110857C225.380571 654.685714 132.420571 454.260571 73.142857 325.659429V786.285714c0 45.334857 16.096 84.093714 48.285714 116.285715C153.618286 934.761143 192.381714 950.857143 237.714286 950.857143h548.571428c45.332571 0 84.096-16.096 116.285715-48.285714C934.761143 870.379429 950.857143 831.620571 950.857143 786.285714v-54.107428c-67.339429 24.630857-283.782857 102.336-300.724572 107.469714z"
          fill=""/>
    <path d="M280.269714 639.844571c8.912-2.038857 175.929143-42.011429 179.494857-42.774857s5.856-2.802286 2.036572-9.419428-222.628571-384.306286-222.628572-384.306286c-2.020571-3.467429-1.444571-4.621714-6.932571-4.333714-4.893714 0.258286-128.701714 11.305143-157.366857 13.700571a174.987429 174.987429 0 0 0-1.579429 18.276572c29.099429 59.570286 196.109714 404.011429 197.046857 406.818285 1.019429 3.056 1.017143 4.075429 9.929143 2.038857z"
          fill=""/>
</svg>